<mxfile host="65bd71144e">
    <diagram id="LebGIcX0ugU43lkHzjji" name="Page-1">
        <mxGraphModel dx="1124" dy="624" grid="0" gridSize="10" guides="0" tooltips="1" connect="1" arrows="1" fold="1" page="0" pageScale="1" pageWidth="827" pageHeight="1169" math="0" shadow="0">
            <root>
                <mxCell id="0"/>
                <mxCell id="1" parent="0"/>
                <mxCell id="2" value="0" style="rounded=0;whiteSpace=wrap;html=1;" vertex="1" parent="1">
                    <mxGeometry x="192" y="16" width="120" height="60" as="geometry"/>
                </mxCell>
                <mxCell id="3" value="00" style="rounded=0;whiteSpace=wrap;html=1;" vertex="1" parent="1">
                    <mxGeometry x="245" y="95" width="120" height="60" as="geometry"/>
                </mxCell>
                <mxCell id="4" value="000" style="rounded=0;whiteSpace=wrap;html=1;" vertex="1" parent="1">
                    <mxGeometry x="298" y="169" width="120" height="60" as="geometry"/>
                </mxCell>
                <mxCell id="6" value="01" style="rounded=0;whiteSpace=wrap;html=1;" vertex="1" parent="1">
                    <mxGeometry x="252" y="245" width="120" height="60" as="geometry"/>
                </mxCell>
                <mxCell id="7" value="1" style="rounded=0;whiteSpace=wrap;html=1;" vertex="1" parent="1">
                    <mxGeometry x="195" y="324" width="120" height="60" as="geometry"/>
                </mxCell>
                <mxCell id="8" value="2" style="rounded=0;whiteSpace=wrap;html=1;" vertex="1" parent="1">
                    <mxGeometry x="197" y="396" width="120" height="60" as="geometry"/>
                </mxCell>
                <mxCell id="10" value="21" style="rounded=0;whiteSpace=wrap;html=1;" vertex="1" parent="1">
                    <mxGeometry x="245" y="467" width="120" height="60" as="geometry"/>
                </mxCell>
            </root>
        </mxGraphModel>
    </diagram>
</mxfile>